<svg aria-hidden="true" focusable="false" data-prefix="fad" data-icon="map-pin" class="svg-inline--fa fa-map-pin fa-w-9" role="img" xmlns="http://www.w3.org/2000/svg" viewBox="0 0 288 512"><g class="fa-group"><path class="fa-secondary" fill="currentColor" d="M144 320a175.77 175.77 0 0 0 32-3.06v156.69l-22 33a12 12 0 0 1-20 0l-22-33V316.94a175.77 175.77 0 0 0 32 3.06z" opacity="0.4"></path><path class="fa-primary" fill="currentColor" d="M144 0a144 144 0 1 0 144 144A144 144 0 0 0 144 0zm0 76a68.07 68.07 0 0 0-68 68 12 12 0 0 1-24 0 92.11 92.11 0 0 1 92-92 12 12 0 0 1 0 24z"></path></g></svg>